<?xml version="1.0" encoding="UTF-8"?>
<svg id="Layer_1" data-name="Layer 1" xmlns="http://www.w3.org/2000/svg" viewBox="0 0 128.49 121.56">
  <defs>
    <style>
      .cls-1 {
        fill: #fff;
        font-family: ErasITC-Demi, 'Eras Demi ITC';
        font-size: 20px;
        font-weight: 300;
      }

      .cls-2 {
        fill: #5f9beb;
      }
    </style>
  </defs>
  <path class="cls-2" d="M102.38,0H24.74c-3.41,0-6.18,2.61-6.18,5.81V54.04c0,3.2,2.77,5.81,6.18,5.81H102.38c3.41,0,6.18-2.61,6.18-5.81V5.81C108.56,2.61,105.78,0,102.38,0h0Zm.89,54.04c0,.46-.4,.83-.89,.83H24.74c-.49,0-.89-.37-.89-.83V5.81c0-.46,.4-.83,.89-.83H102.38c.49,0,.89,.37,.89,.83V54.04Zm-18.56,10.98H42.37c-1.47,0-2.65,1.11-2.65,2.49s1.18,2.49,2.65,2.49h42.35c1.47,0,2.65-1.11,2.65-2.49s-1.19-2.49-2.66-2.49h0Zm-8.47-36.86l-17.65-9.96c-.81-.46-1.83-.47-2.67-.03-.82,.44-1.34,1.27-1.34,2.17v19.93c0,.9,.51,1.72,1.34,2.17,.41,.22,.86,.33,1.3,.33s.95-.12,1.36-.35l17.65-9.96c.79-.45,1.28-1.26,1.28-2.14s-.49-1.69-1.28-2.14Z"/>
  <text class="cls-1" transform="translate(12.29 92.56)"><tspan x="0" y="0">TV SHOWS</tspan><tspan x="-11.67" y="24">AND MOVIES</tspan></text>
</svg>